<svg width="1391" height="904" viewBox="0 0 1391 904" fill="none" xmlns="http://www.w3.org/2000/svg">
<path d="M558.97 471.218C559.468 471.218 559.897 471.412 560.257 471.799L563.743 475.617C561.308 478.494 558.334 480.721 554.82 482.298C551.334 483.876 547.129 484.664 542.204 484.664C537.888 484.664 533.973 483.917 530.46 482.423C526.974 480.929 523.986 478.84 521.496 476.156C519.033 473.473 517.124 470.263 515.769 466.528C514.413 462.793 513.735 458.685 513.735 454.203C513.735 449.721 514.441 445.612 515.852 441.877C517.29 438.142 519.296 434.933 521.869 432.249C524.442 429.566 527.513 427.477 531.082 425.983C534.679 424.489 538.649 423.742 542.993 423.742C547.226 423.742 550.988 424.434 554.281 425.817C557.573 427.2 560.436 429.04 562.871 431.336L559.966 435.445C559.772 435.749 559.523 435.998 559.219 436.192C558.942 436.386 558.569 436.482 558.099 436.482C557.573 436.482 556.95 436.22 556.231 435.694C555.539 435.168 554.613 434.587 553.451 433.951C552.316 433.287 550.905 432.692 549.218 432.166C547.53 431.641 545.427 431.378 542.91 431.378C539.949 431.378 537.238 431.904 534.776 432.955C532.313 433.979 530.183 435.473 528.385 437.437C526.614 439.374 525.231 441.767 524.235 444.616C523.266 447.438 522.782 450.634 522.782 454.203C522.782 457.827 523.294 461.05 524.318 463.872C525.341 466.694 526.752 469.088 528.551 471.052C530.349 473.016 532.465 474.51 534.9 475.534C537.335 476.558 539.963 477.069 542.785 477.069C544.5 477.069 546.036 476.973 547.392 476.779C548.775 476.558 550.034 476.239 551.168 475.824C552.33 475.409 553.423 474.884 554.447 474.247C555.47 473.583 556.48 472.795 557.476 471.882C557.697 471.688 557.933 471.536 558.182 471.425C558.431 471.287 558.693 471.218 558.97 471.218ZM625.579 424.406V484H616.739V457.149H585.656V484H576.775V424.406H585.656V450.717H616.739V424.406H625.579ZM681.448 476.82L681.407 484H644.472V424.406H681.407V431.585H653.353V450.468H675.929V457.398H653.353V476.82H681.448ZM736.853 471.218C737.351 471.218 737.779 471.412 738.139 471.799L741.625 475.617C739.19 478.494 736.216 480.721 732.703 482.298C729.217 483.876 725.011 484.664 720.087 484.664C715.771 484.664 711.856 483.917 708.342 482.423C704.856 480.929 701.868 478.84 699.378 476.156C696.916 473.473 695.007 470.263 693.651 466.528C692.295 462.793 691.618 458.685 691.618 454.203C691.618 449.721 692.323 445.612 693.734 441.877C695.173 438.142 697.179 434.933 699.752 432.249C702.325 429.566 705.396 427.477 708.965 425.983C712.561 424.489 716.531 423.742 720.875 423.742C725.108 423.742 728.871 424.434 732.163 425.817C735.455 427.2 738.319 429.04 740.754 431.336L737.849 435.445C737.655 435.749 737.406 435.998 737.102 436.192C736.825 436.386 736.451 436.482 735.981 436.482C735.455 436.482 734.833 436.22 734.114 435.694C733.422 435.168 732.495 434.587 731.333 433.951C730.199 433.287 728.788 432.692 727.1 432.166C725.412 431.641 723.31 431.378 720.792 431.378C717.832 431.378 715.12 431.904 712.658 432.955C710.196 433.979 708.065 435.473 706.267 437.437C704.496 439.374 703.113 441.767 702.117 444.616C701.149 447.438 700.665 450.634 700.665 454.203C700.665 457.827 701.176 461.05 702.2 463.872C703.224 466.694 704.635 469.088 706.433 471.052C708.231 473.016 710.348 474.51 712.783 475.534C715.217 476.558 717.846 477.069 720.668 477.069C722.383 477.069 723.918 476.973 725.274 476.779C726.657 476.558 727.916 476.239 729.051 475.824C730.213 475.409 731.305 474.884 732.329 474.247C733.353 473.583 734.363 472.795 735.359 471.882C735.58 471.688 735.815 471.536 736.064 471.425C736.313 471.287 736.576 471.218 736.853 471.218ZM763.497 450.177H766.402C767.453 450.177 768.297 450.053 768.933 449.804C769.597 449.527 770.192 449.071 770.718 448.434L789.683 426.398C790.292 425.651 790.915 425.139 791.551 424.862C792.187 424.558 792.976 424.406 793.916 424.406H801.469L779.391 449.804C778.838 450.523 778.285 451.104 777.731 451.547C777.206 451.99 776.652 452.363 776.071 452.667C777.593 453.193 778.921 454.258 780.055 455.863L803.005 484H795.327C794.774 484 794.29 483.958 793.875 483.875C793.488 483.792 793.142 483.682 792.837 483.543C792.561 483.377 792.298 483.184 792.049 482.962C791.828 482.741 791.62 482.478 791.426 482.174L771.797 458.934C771.52 458.574 771.244 458.27 770.967 458.021C770.69 457.772 770.372 457.578 770.012 457.44C769.653 457.274 769.238 457.163 768.767 457.108C768.297 457.025 767.744 456.983 767.107 456.983H763.497V484H754.657V424.406H763.497V450.177ZM866.453 454.203C866.453 458.657 865.733 462.752 864.295 466.487C862.884 470.194 860.878 473.404 858.277 476.115C855.676 478.799 852.564 480.887 848.94 482.381C845.315 483.876 841.29 484.623 836.863 484.623C832.464 484.623 828.439 483.876 824.787 482.381C821.162 480.887 818.05 478.799 815.449 476.115C812.876 473.404 810.87 470.194 809.432 466.487C807.993 462.752 807.274 458.657 807.274 454.203C807.274 449.776 807.993 445.695 809.432 441.96C810.87 438.225 812.876 435.016 815.449 432.332C818.05 429.621 821.162 427.518 824.787 426.024C828.439 424.503 832.464 423.742 836.863 423.742C841.29 423.742 845.315 424.503 848.94 426.024C852.564 427.518 855.676 429.621 858.277 432.332C860.878 435.016 862.884 438.225 864.295 441.96C865.733 445.695 866.453 449.776 866.453 454.203ZM857.406 454.203C857.406 450.662 856.921 447.48 855.953 444.658C854.985 441.836 853.601 439.443 851.803 437.478C850.032 435.514 847.874 434.006 845.329 432.955C842.811 431.904 839.989 431.378 836.863 431.378C833.737 431.378 830.901 431.904 828.356 432.955C825.838 434.006 823.68 435.514 821.882 437.478C820.083 439.443 818.7 441.836 817.732 444.658C816.763 447.48 816.279 450.662 816.279 454.203C816.279 457.772 816.763 460.967 817.732 463.789C818.7 466.584 820.083 468.963 821.882 470.927C823.68 472.892 825.838 474.4 828.356 475.451C830.901 476.475 833.737 476.986 836.863 476.986C839.989 476.986 842.811 476.475 845.329 475.451C847.874 474.4 850.032 472.892 851.803 470.927C853.601 468.963 854.985 466.584 855.953 463.789C856.921 460.967 857.406 457.772 857.406 454.203ZM904.943 476.903C907.322 476.903 909.452 476.502 911.334 475.7C913.215 474.898 914.806 473.777 916.106 472.338C917.406 470.872 918.402 469.143 919.094 467.151C919.786 465.131 920.132 462.904 920.132 460.469V424.406H928.93V460.469C928.93 463.955 928.376 467.179 927.27 470.139C926.163 473.099 924.572 475.658 922.497 477.816C920.422 479.974 917.904 481.662 914.944 482.879C911.984 484.097 908.65 484.706 904.943 484.706C901.235 484.706 897.901 484.097 894.941 482.879C891.981 481.662 889.463 479.974 887.388 477.816C885.313 475.658 883.722 473.099 882.616 470.139C881.509 467.179 880.956 463.955 880.956 460.469V424.406H889.795V460.428C889.795 462.863 890.127 465.09 890.791 467.109C891.483 469.129 892.479 470.872 893.779 472.338C895.079 473.777 896.67 474.898 898.552 475.7C900.433 476.502 902.563 476.903 904.943 476.903ZM987.677 431.793H968.753V484H959.955V431.793H940.948V424.406H987.677V431.793Z" fill="#3C3C3C"/>
<path d="M544.68 345.26H531V383H524.64V345.26H510.9V339.92H544.68V345.26ZM580.606 377.81L580.576 383H553.876V339.92H580.576V345.11H560.296V358.76H576.616V363.77H560.296V377.81H580.606ZM613.795 346.94C613.595 347.28 613.385 347.53 613.165 347.69C612.945 347.85 612.665 347.93 612.325 347.93C611.965 347.93 611.555 347.77 611.095 347.45C610.635 347.11 610.055 346.74 609.355 346.34C608.675 345.92 607.855 345.55 606.895 345.23C605.935 344.89 604.785 344.72 603.445 344.72C602.185 344.72 601.075 344.89 600.115 345.23C599.175 345.55 598.385 346 597.745 346.58C597.105 347.14 596.615 347.81 596.275 348.59C595.955 349.35 595.795 350.18 595.795 351.08C595.795 352.24 596.085 353.2 596.665 353.96C597.265 354.72 598.045 355.37 599.005 355.91C599.965 356.45 601.055 356.92 602.275 357.32C603.495 357.72 604.745 358.14 606.025 358.58C607.305 359 608.555 359.49 609.775 360.05C610.995 360.61 612.085 361.32 613.045 362.18C614.005 363.02 614.775 364.06 615.355 365.3C615.955 366.52 616.255 368.02 616.255 369.8C616.255 371.7 615.925 373.48 615.265 375.14C614.625 376.8 613.685 378.25 612.445 379.49C611.205 380.73 609.675 381.71 607.855 382.43C606.055 383.13 604.005 383.48 601.705 383.48C600.325 383.48 598.985 383.34 597.685 383.06C596.385 382.8 595.155 382.43 593.995 381.95C592.835 381.45 591.745 380.86 590.725 380.18C589.725 379.48 588.825 378.7 588.025 377.84L589.855 374.78C590.035 374.54 590.245 374.34 590.485 374.18C590.745 374.02 591.035 373.94 591.355 373.94C591.775 373.94 592.255 374.16 592.795 374.6C593.355 375.04 594.035 375.53 594.835 376.07C595.655 376.59 596.625 377.07 597.745 377.51C598.885 377.95 600.265 378.17 601.885 378.17C603.205 378.17 604.385 378 605.425 377.66C606.465 377.3 607.335 376.8 608.035 376.16C608.755 375.5 609.305 374.71 609.685 373.79C610.065 372.87 610.255 371.85 610.255 370.73C610.255 369.47 609.965 368.44 609.385 367.64C608.805 366.84 608.035 366.17 607.075 365.63C606.115 365.09 605.025 364.63 603.805 364.25C602.585 363.87 601.335 363.48 600.055 363.08C598.775 362.66 597.525 362.18 596.305 361.64C595.085 361.1 593.995 360.4 593.035 359.54C592.075 358.66 591.305 357.57 590.725 356.27C590.145 354.95 589.855 353.33 589.855 351.41C589.855 349.87 590.155 348.38 590.755 346.94C591.355 345.5 592.225 344.23 593.365 343.13C594.525 342.01 595.945 341.12 597.625 340.46C599.305 339.78 601.225 339.44 603.385 339.44C605.805 339.44 608.025 339.83 610.045 340.61C612.085 341.37 613.855 342.47 615.355 343.91L613.795 346.94ZM656.512 345.26H642.832V383H636.472V345.26H622.732V339.92H656.512V345.26ZM692.438 377.81L692.408 383H665.708V339.92H692.408V345.11H672.128V358.76H688.448V363.77H672.128V377.81H692.438ZM727.933 345.11V359.54H745.213V364.73H727.933V383H721.513V339.92H748.213V345.11H727.933ZM770.649 360.68C772.289 360.68 773.729 360.48 774.969 360.08C776.229 359.68 777.279 359.12 778.119 358.4C778.959 357.66 779.589 356.79 780.009 355.79C780.429 354.77 780.639 353.65 780.639 352.43C780.639 349.95 779.819 348.08 778.179 346.82C776.559 345.56 774.119 344.93 770.859 344.93H764.829V360.68H770.649ZM790.749 383H785.049C783.909 383 783.079 382.55 782.559 381.65L771.909 366.71C771.569 366.21 771.199 365.86 770.799 365.66C770.399 365.44 769.799 365.33 768.999 365.33H764.829V383H758.439V339.92H770.859C773.639 339.92 776.029 340.21 778.029 340.79C780.049 341.35 781.709 342.16 783.009 343.22C784.329 344.26 785.299 345.52 785.919 347C786.559 348.48 786.879 350.14 786.879 351.98C786.879 353.48 786.649 354.89 786.189 356.21C785.729 357.53 785.049 358.72 784.149 359.78C783.269 360.82 782.189 361.72 780.909 362.48C779.629 363.24 778.179 363.82 776.559 364.22C777.359 364.7 778.049 365.37 778.629 366.23L790.749 383ZM838.962 361.46C838.962 364.68 838.442 367.64 837.402 370.34C836.382 373.02 834.932 375.34 833.052 377.3C831.172 379.24 828.922 380.75 826.302 381.83C823.682 382.91 820.772 383.45 817.572 383.45C814.392 383.45 811.482 382.91 808.842 381.83C806.222 380.75 803.972 379.24 802.092 377.3C800.232 375.34 798.782 373.02 797.742 370.34C796.702 367.64 796.182 364.68 796.182 361.46C796.182 358.26 796.702 355.31 797.742 352.61C798.782 349.91 800.232 347.59 802.092 345.65C803.972 343.69 806.222 342.17 808.842 341.09C811.482 339.99 814.392 339.44 817.572 339.44C820.772 339.44 823.682 339.99 826.302 341.09C828.922 342.17 831.172 343.69 833.052 345.65C834.932 347.59 836.382 349.91 837.402 352.61C838.442 355.31 838.962 358.26 838.962 361.46ZM832.422 361.46C832.422 358.9 832.072 356.6 831.372 354.56C830.672 352.52 829.672 350.79 828.372 349.37C827.092 347.95 825.532 346.86 823.692 346.1C821.872 345.34 819.832 344.96 817.572 344.96C815.312 344.96 813.262 345.34 811.422 346.1C809.602 346.86 808.042 347.95 806.742 349.37C805.442 350.79 804.442 352.52 803.742 354.56C803.042 356.6 802.692 358.9 802.692 361.46C802.692 364.04 803.042 366.35 803.742 368.39C804.442 370.41 805.442 372.13 806.742 373.55C808.042 374.97 809.602 376.06 811.422 376.82C813.262 377.56 815.312 377.93 817.572 377.93C819.832 377.93 821.872 377.56 823.692 376.82C825.532 376.06 827.092 374.97 828.372 373.55C829.672 372.13 830.672 370.41 831.372 368.39C832.072 366.35 832.422 364.04 832.422 361.46ZM885.266 339.92V383H882.026C881.526 383 881.106 382.91 880.766 382.73C880.446 382.55 880.116 382.26 879.776 381.86L855.446 350.39C855.486 350.93 855.516 351.46 855.536 351.98C855.576 352.5 855.596 352.99 855.596 353.45V383H849.986V339.92H853.286C853.846 339.92 854.266 339.99 854.546 340.13C854.826 340.25 855.136 340.54 855.476 341L879.866 372.5C879.806 371.92 879.756 371.36 879.716 370.82C879.696 370.26 879.686 369.74 879.686 369.26V339.92H885.266ZM928.293 345.26H914.613V383H908.253V345.26H894.513V339.92H928.293V345.26ZM964.22 377.81L964.19 383H937.49V339.92H964.19V345.11H943.91V358.76H960.23V363.77H943.91V377.81H964.22ZM1010.4 339.92V383H1007.16C1006.66 383 1006.24 382.91 1005.9 382.73C1005.58 382.55 1005.25 382.26 1004.91 381.86L980.579 350.39C980.619 350.93 980.649 351.46 980.669 351.98C980.709 352.5 980.729 352.99 980.729 353.45V383H975.119V339.92H978.419C978.979 339.92 979.399 339.99 979.679 340.13C979.959 340.25 980.269 340.54 980.609 341L1005 372.5C1004.94 371.92 1004.89 371.36 1004.85 370.82C1004.83 370.26 1004.82 369.74 1004.82 369.26V339.92H1010.4ZM1061.65 361.46C1061.65 364.68 1061.13 367.61 1060.09 370.25C1059.07 372.89 1057.62 375.16 1055.74 377.06C1053.86 378.94 1051.61 380.4 1048.99 381.44C1046.37 382.48 1043.46 383 1040.26 383H1024.06V339.92H1040.26C1043.46 339.92 1046.37 340.44 1048.99 341.48C1051.61 342.52 1053.86 343.99 1055.74 345.89C1057.62 347.77 1059.07 350.04 1060.09 352.7C1061.13 355.34 1061.65 358.26 1061.65 361.46ZM1055.11 361.46C1055.11 358.9 1054.76 356.61 1054.06 354.59C1053.36 352.55 1052.36 350.83 1051.06 349.43C1049.78 348.01 1048.22 346.93 1046.38 346.19C1044.56 345.45 1042.52 345.08 1040.26 345.08H1030.48V377.84H1040.26C1042.52 377.84 1044.56 377.47 1046.38 376.73C1048.22 375.99 1049.78 374.92 1051.06 373.52C1052.36 372.1 1053.36 370.38 1054.06 368.36C1054.76 366.34 1055.11 364.04 1055.11 361.46ZM1106.27 377.93C1107.89 377.93 1109.27 377.74 1110.41 377.36C1111.57 376.98 1112.51 376.46 1113.23 375.8C1113.97 375.14 1114.51 374.36 1114.85 373.46C1115.19 372.54 1115.36 371.54 1115.36 370.46C1115.36 368.32 1114.62 366.64 1113.14 365.42C1111.66 364.18 1109.37 363.56 1106.27 363.56H1097.27V377.93H1106.27ZM1097.27 344.93V359.03H1104.62C1107.76 359.03 1110.09 358.4 1111.61 357.14C1113.15 355.86 1113.92 354.14 1113.92 351.98C1113.92 349.52 1113.19 347.73 1111.73 346.61C1110.27 345.49 1108 344.93 1104.92 344.93H1097.27ZM1104.92 339.92C1107.62 339.92 1109.93 340.18 1111.85 340.7C1113.79 341.22 1115.38 341.97 1116.62 342.95C1117.86 343.93 1118.77 345.12 1119.35 346.52C1119.95 347.9 1120.25 349.47 1120.25 351.23C1120.25 352.27 1120.09 353.27 1119.77 354.23C1119.45 355.19 1118.96 356.09 1118.3 356.93C1117.64 357.75 1116.81 358.49 1115.81 359.15C1114.81 359.81 1113.63 360.36 1112.27 360.8C1118.53 362.04 1121.66 365.31 1121.66 370.61C1121.66 372.45 1121.32 374.13 1120.64 375.65C1119.96 377.15 1118.97 378.45 1117.67 379.55C1116.37 380.65 1114.77 381.5 1112.87 382.1C1110.97 382.7 1108.81 383 1106.39 383H1090.88V339.92H1104.92ZM1159.57 377.81L1159.54 383H1132.84V339.92H1159.54V345.11H1139.26V358.76H1155.58V363.77H1139.26V377.81H1159.57ZM1203.89 383H1197.56C1197.1 383 1196.73 382.88 1196.45 382.64C1196.17 382.38 1195.95 382.11 1195.79 381.83L1184.66 364.1C1184.5 364.6 1184.31 365.03 1184.09 365.39L1173.26 381.83C1173.06 382.11 1172.83 382.38 1172.57 382.64C1172.31 382.88 1171.98 383 1171.58 383H1165.61L1180.34 360.83L1166.24 339.92H1172.57C1173.03 339.92 1173.37 339.99 1173.59 340.13C1173.81 340.27 1174 340.48 1174.16 340.76L1185.05 357.65C1185.21 357.13 1185.43 356.65 1185.71 356.21L1195.91 340.88C1196.09 340.56 1196.29 340.32 1196.51 340.16C1196.73 340 1197.01 339.92 1197.35 339.92H1203.44L1189.25 360.56L1203.89 383ZM1235.02 346.94C1234.82 347.28 1234.61 347.53 1234.39 347.69C1234.17 347.85 1233.89 347.93 1233.55 347.93C1233.19 347.93 1232.78 347.77 1232.32 347.45C1231.86 347.11 1231.28 346.74 1230.58 346.34C1229.9 345.92 1229.08 345.55 1228.12 345.23C1227.16 344.89 1226.01 344.72 1224.67 344.72C1223.41 344.72 1222.3 344.89 1221.34 345.23C1220.4 345.55 1219.61 346 1218.97 346.58C1218.33 347.14 1217.84 347.81 1217.5 348.59C1217.18 349.35 1217.02 350.18 1217.02 351.08C1217.02 352.24 1217.31 353.2 1217.89 353.96C1218.49 354.72 1219.27 355.37 1220.23 355.91C1221.19 356.45 1222.28 356.92 1223.5 357.32C1224.72 357.72 1225.97 358.14 1227.25 358.58C1228.53 359 1229.78 359.49 1231 360.05C1232.22 360.61 1233.31 361.32 1234.27 362.18C1235.23 363.02 1236 364.06 1236.58 365.3C1237.18 366.52 1237.48 368.02 1237.48 369.8C1237.48 371.7 1237.15 373.48 1236.49 375.14C1235.85 376.8 1234.91 378.25 1233.67 379.49C1232.43 380.73 1230.9 381.71 1229.08 382.43C1227.28 383.13 1225.23 383.48 1222.93 383.48C1221.55 383.48 1220.21 383.34 1218.91 383.06C1217.61 382.8 1216.38 382.43 1215.22 381.95C1214.06 381.45 1212.97 380.86 1211.95 380.18C1210.95 379.48 1210.05 378.7 1209.25 377.84L1211.08 374.78C1211.26 374.54 1211.47 374.34 1211.71 374.18C1211.97 374.02 1212.26 373.94 1212.58 373.94C1213 373.94 1213.48 374.16 1214.02 374.6C1214.58 375.04 1215.26 375.53 1216.06 376.07C1216.88 376.59 1217.85 377.07 1218.97 377.51C1220.11 377.95 1221.49 378.17 1223.11 378.17C1224.43 378.17 1225.61 378 1226.65 377.66C1227.69 377.3 1228.56 376.8 1229.26 376.16C1229.98 375.5 1230.53 374.71 1230.91 373.79C1231.29 372.87 1231.48 371.85 1231.48 370.73C1231.48 369.47 1231.19 368.44 1230.61 367.64C1230.03 366.84 1229.26 366.17 1228.3 365.63C1227.34 365.09 1226.25 364.63 1225.03 364.25C1223.81 363.87 1222.56 363.48 1221.28 363.08C1220 362.66 1218.75 362.18 1217.53 361.64C1216.31 361.1 1215.22 360.4 1214.26 359.54C1213.3 358.66 1212.53 357.57 1211.95 356.27C1211.37 354.95 1211.08 353.33 1211.08 351.41C1211.08 349.87 1211.38 348.38 1211.98 346.94C1212.58 345.5 1213.45 344.23 1214.59 343.13C1215.75 342.01 1217.17 341.12 1218.85 340.46C1220.53 339.78 1222.45 339.44 1224.61 339.44C1227.03 339.44 1229.25 339.83 1231.27 340.61C1233.31 341.37 1235.08 342.47 1236.58 343.91L1235.02 346.94Z" fill="#4BDE95"/>
<path d="M-301.807 1042.23L271.823 452.083L424.279 609.064L-149.352 1199.21L-301.807 1042.23Z" fill="#4BDE95"/>
<path d="M119.368 295.102L692.998 -295.048L845.454 -138.067L271.823 452.083L119.368 295.102Z" fill="#FFB957"/>
</svg>
