<svg width="492" height="303" viewBox="0 0 492 303" fill="none" xmlns="http://www.w3.org/2000/svg">
<path d="M481.998 0H10C4.47715 0 0 4.47715 0 10V292.469C0 297.992 4.47715 302.469 10 302.469H481.998C487.521 302.469 491.998 297.992 491.998 292.469V10C491.998 4.47715 487.521 0 481.998 0Z" fill="url(#paint0_radial_1_2)"/>
<g clip-path="url(#clip0_1_2)">
<path d="M144.587 77.3464H137.165C136.893 76.0464 136.602 74.7654 136.372 73.4774C136.272 72.9434 136.106 72.7354 135.509 72.7434C132.533 72.7814 129.556 72.7724 126.58 72.7484C126.405 72.7212 126.226 72.7644 126.082 72.8685C125.938 72.9727 125.842 73.1293 125.813 73.3044C125.403 74.5314 124.955 75.7454 124.496 76.9554C124.434 77.1194 124.227 77.3444 124.086 77.3464C121.404 77.3694 118.721 77.3633 115.961 77.3633C116.461 76.1523 116.94 74.9954 117.424 73.8424C120.883 65.5897 124.343 57.3374 127.803 49.0854C128.054 48.2928 128.568 47.6097 129.26 47.1486C129.952 46.6875 130.78 46.4762 131.608 46.5494H138.124C138.339 47.5554 138.556 48.5494 138.763 49.5404C140.465 57.6957 142.167 65.851 143.869 74.0064C144.088 75.0514 144.345 76.0873 144.585 77.1273L144.587 77.3464ZM134.874 66.4024L132.518 55.1274L132.418 55.1084L128.324 66.4014L134.874 66.4024Z" fill="white"/>
<path d="M112.255 46C113.234 46.182 114.221 46.331 115.191 46.555C116.076 46.755 116.942 47.044 117.883 47.312L116.494 53.812C115.253 53.448 114.067 53.029 112.848 52.76C111.196 52.3295 109.463 52.3148 107.804 52.717C107.106 52.9148 106.459 53.2588 105.904 53.726C105.692 53.8837 105.518 54.0879 105.397 54.3229C105.276 54.558 105.211 54.8176 105.206 55.082C105.2 55.3463 105.256 55.6083 105.368 55.8479C105.48 56.0875 105.645 56.2982 105.851 56.464C106.475 57.0208 107.157 57.5099 107.884 57.923C109.508 58.899 111.213 59.749 112.791 60.792C113.725 61.3427 114.525 62.0955 115.13 62.9953C115.736 63.8951 116.133 64.919 116.291 65.992C116.595 67.8282 116.34 69.7135 115.558 71.4027C114.777 73.0919 113.505 74.5066 111.908 75.463C109.782 76.8024 107.353 77.587 104.845 77.745C101.364 78.0739 97.8522 77.6758 94.533 76.576C94.308 76.502 94.089 76.41 93.87 76.32C93.7925 76.2797 93.718 76.2339 93.647 76.183L95.084 69.454C95.656 69.704 96.193 69.954 96.742 70.175C99.2979 71.2961 102.125 71.6484 104.878 71.189C105.627 71.0388 106.339 70.7417 106.972 70.315C107.282 70.1321 107.544 69.8763 107.733 69.5698C107.922 69.2632 108.034 68.9151 108.059 68.5556C108.083 68.1962 108.02 67.8361 107.874 67.5067C107.728 67.1772 107.504 66.8883 107.221 66.665C106.376 66.0038 105.478 65.4132 104.536 64.899C103.106 64.028 101.586 63.285 100.236 62.31C99.3575 61.7402 98.6135 60.986 98.0558 60.0997C97.498 59.2135 97.1398 58.2165 97.006 57.178C96.8132 55.6463 97.0278 54.0909 97.6283 52.6688C98.2288 51.2466 99.1938 50.008 100.426 49.078C102.633 47.367 105.29 46.3357 108.073 46.11C108.229 46.0827 108.383 46.0463 108.534 46.001L112.255 46Z" fill="white"/>
<path d="M83.3941 46.5746C82.9771 47.5746 82.5821 48.5346 82.1821 49.4886C78.3627 58.6006 74.5457 67.7139 70.7311 76.8286C70.6816 77.007 70.5683 77.1611 70.4127 77.2616C70.2571 77.362 70.0701 77.4019 69.8871 77.3736C67.4761 77.3536 65.0651 77.3456 62.6551 77.3786C62.1441 77.3856 61.9771 77.2066 61.8551 76.7476C59.8111 68.7836 57.7331 60.8276 55.7131 52.8566C55.5815 52.178 55.2844 51.5425 54.8483 51.0062C54.4122 50.47 53.8505 50.0497 53.2131 49.7826C50.9828 48.8294 48.6702 48.0816 46.3041 47.5486C46.2041 47.5236 46.0961 47.4966 45.9971 47.4716C46.0091 46.5476 46.0091 46.5476 46.8881 46.5476C51.1067 46.5476 55.3257 46.5476 59.5451 46.5476C60.4598 46.5001 61.3592 46.7963 62.0668 47.378C62.7743 47.9597 63.2388 48.7849 63.3691 49.6916C64.4404 55.2989 65.4994 60.9086 66.5461 66.5206C66.5921 66.7656 66.6461 67.0096 66.7151 67.3556C66.8241 67.1496 66.9011 67.0346 66.9511 66.9086C69.5717 60.2806 72.1881 53.6509 74.8001 47.0196C74.8371 46.8654 74.9302 46.7306 75.0613 46.6415C75.1925 46.5523 75.3521 46.5153 75.5091 46.5376C77.9561 46.5566 80.4041 46.5466 82.8511 46.5486C83.0121 46.5506 83.1701 46.5636 83.3941 46.5746Z" fill="white"/>
<path d="M80.1992 77.3621L86.7862 46.5801H94.7802C94.4472 48.1421 94.1222 49.6731 93.7942 51.2051C91.9829 59.6717 90.1762 68.1417 88.3742 76.6151C88.2502 77.2041 88.0412 77.3911 87.4302 77.3791C85.2392 77.3371 83.0472 77.3621 80.8562 77.3621H80.1992Z" fill="white"/>
</g>
<defs>
<radialGradient id="paint0_radial_1_2" cx="0" cy="0" r="1" gradientUnits="userSpaceOnUse" gradientTransform="translate(71.8022 175.62) scale(359.464 315.495)">
<stop stop-color="#5A7589"/>
<stop offset="0.337" stop-color="#436175"/>
<stop offset="0.572917" stop-color="#315266"/>
<stop offset="1" stop-color="#124768"/>
</radialGradient>
<clipPath id="clip0_1_2">
<rect width="98.587" height="31.858" fill="white" transform="translate(46 46)"/>
</clipPath>
</defs>
</svg>
