<svg width="139" height="61" viewBox="0 0 139 61" fill="none" xmlns="http://www.w3.org/2000/svg">
<path d="M123.722 42.05C131.99 42.05 138.163 38.4132 138.163 32.07C138.163 26.0604 133.754 23.7993 126.643 21.8705C122.123 20.6578 119.808 20.2716 119.808 18.176C119.808 16.6874 121.13 15.8045 123.501 15.8045C124.019 15.7475 124.543 15.7983 125.04 15.9536C125.537 16.1089 125.997 16.3653 126.39 16.7069C126.784 17.0484 127.102 17.4677 127.326 17.9382C127.549 18.4088 127.673 18.9206 127.69 19.4414L137.28 19.3862C136.729 12.8248 131.438 8.52454 123.28 8.52454C115.73 8.52454 109.667 12.1087 109.667 18.5572C109.667 23.2989 112.753 26.6072 119.808 28.3717C124.658 29.5844 127.69 30.2466 127.69 32.3421C127.69 34.1066 126.311 34.8227 123.501 34.8227C120.525 34.8227 118.761 33.1686 118.43 30.7984H108.784C109.17 37.746 115.343 42.0463 123.72 42.0463" fill="#4BDE95"/>
<path d="M53.9849 42.05C57.9649 42.1095 61.833 40.732 64.88 38.17C67.927 35.6079 69.9488 32.0331 70.5747 28.1008H61.9758C61.4655 29.802 60.4025 31.2844 58.9552 32.3131C57.5078 33.3419 55.7587 33.8583 53.9849 33.7806C52.8794 33.8009 51.7815 33.5952 50.7583 33.1763C49.7351 32.7574 48.8081 32.1339 48.0341 31.3442C47.2601 30.5544 46.6554 29.615 46.257 28.5833C45.8585 27.5517 45.6747 26.4495 45.7169 25.3444C45.7169 20.6027 48.8034 16.8542 53.9297 16.8542C55.0477 16.8416 56.1366 17.211 57.0162 17.9014L50.2915 24.4076L55.5281 29.6998L68.4811 16.9081C67.065 14.3766 65.0022 12.2667 62.5037 10.7942C60.0052 9.32162 57.1606 8.53927 54.2607 8.52707C52.0279 8.49255 49.8105 8.90149 47.7369 9.73024C45.6632 10.559 43.7745 11.7911 42.1802 13.3551C40.5859 14.9191 39.3177 16.784 38.4489 18.8418C37.5802 20.8996 37.1282 23.1094 37.1192 25.3431C37.1132 27.5526 37.5466 29.7412 38.3941 31.7816C39.2416 33.8219 40.4864 35.6733 42.0559 37.2279C43.6254 38.7825 45.4883 40.0094 47.5363 40.837C49.5842 41.6647 51.7763 42.0766 53.9849 42.0488" fill="#4BDE95"/>
<path d="M78.7874 42.1052L89.149 31.4643L99.5658 42.1052L106.291 35.5438L95.7083 25.1237L105.904 14.869L99.4003 8.47314L89.4236 18.783L79.2826 8.47314L72.5579 15.0345L82.754 25.0672L72.2821 35.7081L78.7874 42.1052Z" fill="#4BDE95"/>
<path d="M17.6758 8.52832C14.4767 8.49677 11.3436 9.43886 8.69201 11.2296V0.864594H0.258545V24.8503C0.258545 34.8829 7.42329 42.0525 17.1242 42.0525C19.3403 42.0572 21.5356 41.624 23.5839 40.7777C25.6322 39.9315 27.4933 38.689 29.0603 37.1214C30.6274 35.5539 31.8695 33.6922 32.7155 31.6431C33.5614 29.5941 33.9945 27.3982 33.9899 25.1813C34.0244 23.0129 33.6284 20.8592 32.8249 18.845C32.0214 16.8308 30.8264 14.9961 29.309 13.4472C27.7916 11.8983 25.9821 10.6659 23.9852 9.82158C21.9883 8.97724 19.8438 8.53766 17.6758 8.52832V8.52832ZM17.3611 33.6702C15.1643 33.6433 13.0665 32.7514 11.5226 31.1879C9.97858 29.6244 9.11276 27.5151 9.11276 25.3174C9.11276 23.1196 9.97858 21.0104 11.5226 19.4469C13.0665 17.8834 15.1643 16.9915 17.3611 16.9646C19.558 16.9915 21.6558 17.8834 23.1997 19.4469C24.7437 21.0104 25.6095 23.1196 25.6095 25.3174C25.6095 27.5151 24.7437 29.6244 23.1997 31.1879C21.6558 32.7514 19.558 33.6433 17.3611 33.6702V33.6702Z" fill="#4BDE95"/>
<path d="M7.823 52.6207H4.45437V60.7145H3.65702V52.6207H0.272095V51.8958H7.82049L7.823 52.6207Z" fill="#3C3C3C"/>
<path d="M9.84048 51.408H10.6378V55.2618C10.8683 54.8416 11.2128 54.495 11.6315 54.2621C12.0503 54.0291 12.5263 53.9192 13.0048 53.945C13.3216 53.929 13.6383 53.978 13.9354 54.0891C14.2325 54.2002 14.5037 54.3709 14.7324 54.5909C14.9509 54.8238 15.1202 55.0985 15.2301 55.3984C15.34 55.6984 15.3881 56.0175 15.3717 56.3365V60.7095H14.5869V56.4456C14.6002 56.2062 14.5646 55.9666 14.4825 55.7413C14.4004 55.5161 14.2735 55.3098 14.1093 55.1351C13.9386 54.9723 13.7365 54.8459 13.5153 54.7637C13.2942 54.6816 13.0586 54.6454 12.823 54.6573C12.5268 54.6462 12.2318 54.6999 11.9585 54.8148C11.6852 54.9296 11.4403 55.1027 11.2409 55.322C10.8243 55.8031 10.6081 56.4256 10.6366 57.0614V60.7095H9.83923L9.84048 51.408Z" fill="#3C3C3C"/>
<path d="M23.646 57.5818H18.3931C18.4042 58.29 18.6927 58.9655 19.1967 59.463C19.4499 59.7033 19.7486 59.8906 20.0752 60.014C20.4018 60.1374 20.7497 60.1944 21.0985 60.1816C21.8712 60.1872 22.6336 60.0047 23.3201 59.6498L23.5495 60.2769C22.8076 60.711 21.9574 60.9246 21.0985 60.8926C20.6304 60.9118 20.1633 60.8361 19.7253 60.6699C19.2873 60.5037 18.8874 60.2506 18.5498 59.9257C18.2236 59.5971 17.9684 59.2048 17.8002 58.7733C17.632 58.3418 17.5542 57.8803 17.5719 57.4175C17.5307 56.5012 17.8415 55.6038 18.4407 54.9094C18.7241 54.5944 19.0729 54.3452 19.4627 54.1793C19.8525 54.0133 20.2739 53.9347 20.6973 53.9488C21.0989 53.9293 21.4999 53.9957 21.8737 54.1436C22.2475 54.2916 22.5854 54.5176 22.865 54.8065C23.4255 55.4458 23.7175 56.2771 23.6799 57.1266C23.6804 57.279 23.6691 57.4312 23.646 57.5818ZM19.1591 55.2743C18.7328 55.7272 18.471 56.3102 18.4156 56.9297H22.885C22.9024 56.3179 22.6838 55.723 22.2745 55.2681C22.065 55.0606 21.8145 54.8991 21.539 54.7942C21.2635 54.6892 20.9691 54.643 20.6748 54.6585C20.3934 54.6514 20.1135 54.7023 19.8527 54.8083C19.5919 54.9142 19.3558 55.0729 19.1591 55.2743Z" fill="#3C3C3C"/>
<path d="M28.7374 54.1268H29.5824L31.503 59.7326L33.3384 54.1268H34.2323L36.0676 59.7326L37.9631 54.1268H38.8081L36.4888 60.7108H35.6551L33.7521 55.0085L31.8565 60.7108H31.0592L28.7374 54.1268Z" fill="#3C3C3C"/>
<path d="M40.9905 59.9194C40.3743 59.2324 40.0336 58.3418 40.0336 57.4188C40.0336 56.4958 40.3743 55.6052 40.9905 54.9181C41.6564 54.2931 42.5352 53.9452 43.4483 53.9452C44.3614 53.9452 45.2402 54.2931 45.9061 54.9181C46.5231 55.6044 46.8651 56.4945 46.8662 57.4176C46.8674 58.3406 46.5277 59.2316 45.9124 59.9194C45.2441 60.5441 44.3636 60.8916 43.4489 60.8916C42.5343 60.8916 41.6538 60.5441 40.9855 59.9194H40.9905ZM45.3194 59.4291C45.8122 58.8761 46.0699 58.1526 46.0377 57.4125C46.0692 56.6778 45.8113 55.96 45.3194 55.4135C44.8214 54.9224 44.1501 54.647 43.4508 54.647C42.7515 54.647 42.0803 54.9224 41.5823 55.4135C41.0867 55.9582 40.8262 56.6767 40.8577 57.4125C40.8257 58.1537 41.0859 58.8779 41.5823 59.4291C42.0782 59.9242 42.7502 60.2023 43.4508 60.2023C44.1514 60.2023 44.8235 59.9242 45.3194 59.4291V59.4291Z" fill="#3C3C3C"/>
<path d="M52.6447 53.945V54.7539C52.5556 54.7451 52.4679 54.7413 52.3789 54.7413C52.0278 54.7227 51.6771 54.7856 51.3544 54.925C51.0316 55.0645 50.7455 55.2768 50.5183 55.5452C50.056 56.1388 49.8204 56.8778 49.8539 57.6295V60.7095H49.0565V54.1256H49.8539V55.5264C50.1123 55.0178 50.5148 54.5965 51.0112 54.3153C51.5075 54.034 52.0756 53.9052 52.6447 53.945V53.945Z" fill="#3C3C3C"/>
<path d="M54.2279 51.408H55.0251V60.7108H54.2279V51.408Z" fill="#3C3C3C"/>
<path d="M57.9903 59.9258C57.4377 59.2065 57.1381 58.3248 57.1381 57.4176C57.1381 56.5104 57.4377 55.6287 57.9903 54.9094C58.45 54.4109 59.0649 54.0827 59.7349 53.9784C60.4049 53.8741 61.0904 53.9998 61.6798 54.335C62.1159 54.5984 62.4711 54.9767 62.7065 55.4286V51.4055H63.4913V60.7083H62.7065V59.404C62.4712 59.856 62.116 60.2344 61.6798 60.4976C61.0905 60.833 60.4051 60.9589 59.7351 60.8549C59.0652 60.7508 58.4502 60.4229 57.9903 59.9245V59.9258ZM62.0546 59.4116C62.4776 58.8319 62.7056 58.1328 62.7056 57.4151C62.7056 56.6974 62.4776 55.9982 62.0546 55.4185C61.8471 55.1709 61.586 54.9737 61.2911 54.8418C60.9961 54.7099 60.675 54.6468 60.3522 54.6573C60.0256 54.647 59.701 54.71 59.402 54.8417C59.103 54.9735 58.8374 55.1705 58.6246 55.4185C58.1639 55.9774 57.9271 56.6876 57.9602 57.4113C57.9351 58.1366 58.1729 58.8465 58.6296 59.4103C58.8399 59.6601 59.104 59.859 59.4022 59.9919C59.7003 60.1248 60.0247 60.1884 60.3509 60.1778C60.6744 60.1879 60.996 60.1241 61.2912 59.9914C61.5864 59.8586 61.8474 59.6603 62.0546 59.4116V59.4116Z" fill="#3C3C3C"/>
<path d="M68.8784 54.1268H69.7234L71.644 59.7326L73.4794 54.1268H74.3733L76.2087 59.7326L78.1043 54.1268H78.9492L76.6299 60.7108H75.7962L73.9006 55.0085L72.0051 60.7108H71.2078L68.8784 54.1268Z" fill="#3C3C3C"/>
<path d="M80.6358 52.5254C80.5315 52.4166 80.4733 52.2717 80.4733 52.1209C80.4733 51.9702 80.5315 51.8253 80.6358 51.7165C80.6866 51.664 80.7476 51.6224 80.8151 51.5944C80.8826 51.5663 80.9551 51.5524 81.0282 51.5535C81.1049 51.5499 81.1816 51.5619 81.2536 51.5888C81.3256 51.6157 81.3913 51.6568 81.4469 51.7099C81.5025 51.7629 81.5467 51.8267 81.577 51.8974C81.6072 51.968 81.6228 52.0441 81.6228 52.1209C81.6228 52.1978 81.6072 52.2738 81.577 52.3445C81.5467 52.4151 81.5025 52.4789 81.4469 52.532C81.3913 52.585 81.3256 52.6263 81.2536 52.6531C81.1816 52.68 81.1049 52.692 81.0282 52.6884C80.9551 52.6895 80.8826 52.6756 80.8151 52.6475C80.7476 52.6195 80.6866 52.5779 80.6358 52.5254V52.5254ZM80.6358 54.1256H81.4206V60.7095H80.6358V54.1256Z" fill="#3C3C3C"/>
<path d="M84.4878 59.9258C83.935 59.2066 83.6353 58.3248 83.6353 57.4176C83.6353 56.5104 83.935 55.6286 84.4878 54.9094C84.9474 54.4107 85.5623 54.0823 86.2323 53.978C86.9024 53.8737 87.588 53.9996 88.1773 54.335C88.6135 54.5983 88.9688 54.9767 89.2041 55.4286V51.4055H89.9889V60.7083H89.2041V59.404C88.9688 59.856 88.6135 60.2344 88.1773 60.4976C87.588 60.833 86.9026 60.9589 86.2326 60.8549C85.5627 60.7508 84.9477 60.4229 84.4878 59.9245V59.9258ZM88.5522 59.4116C88.9752 58.8319 89.2032 58.1328 89.2032 57.4151C89.2032 56.6974 88.9752 55.9982 88.5522 55.4185C88.3447 55.1709 88.0836 54.9737 87.7886 54.8418C87.4937 54.7099 87.1727 54.6468 86.8498 54.6573C86.5232 54.6469 86.1985 54.7099 85.8995 54.8416C85.6005 54.9733 85.3348 55.1705 85.1221 55.4185C84.6614 55.9774 84.4246 56.6876 84.4577 57.4113C84.433 58.1368 84.6712 58.8467 85.1284 59.4103C85.3387 59.6601 85.6028 59.859 85.9009 59.9919C86.1991 60.1248 86.5235 60.1884 86.8498 60.1778C87.1728 60.1875 87.4939 60.1236 87.7886 59.9908C88.0834 59.8581 88.3441 59.66 88.551 59.4116H88.5522Z" fill="#3C3C3C"/>
<path d="M98.2623 57.5819H93.0093C93.0205 58.29 93.3091 58.9654 93.8129 59.463C94.0662 59.7033 94.3649 59.8906 94.6914 60.014C95.018 60.1374 95.3659 60.1944 95.7147 60.1816C96.4878 60.1874 97.2507 60.0049 97.9376 59.6498L98.167 60.2769C97.4251 60.711 96.5749 60.9246 95.716 60.8926C95.2479 60.9119 94.7808 60.8362 94.3427 60.67C93.9047 60.5038 93.5048 60.2507 93.1672 59.9257C92.8411 59.597 92.5859 59.2048 92.4177 58.7733C92.2495 58.3418 92.1718 57.8804 92.1894 57.4176C92.1484 56.501 92.4597 55.6036 93.0594 54.9094C93.3428 54.5944 93.6916 54.3451 94.0814 54.1792C94.4712 54.0132 94.8926 53.9346 95.3161 53.9488C95.7176 53.9294 96.1186 53.9959 96.4924 54.1438C96.8662 54.2917 97.2041 54.5177 97.4837 54.8066C98.0442 55.4459 98.3362 56.2771 98.2987 57.1266C98.2984 57.2791 98.2863 57.4313 98.2623 57.5819ZM93.7753 55.2744C93.3491 55.7273 93.0873 56.3102 93.0319 56.9297H97.5013C97.519 56.3181 97.3008 55.7232 96.892 55.2681C96.6825 55.0606 96.4321 54.8992 96.1566 54.7942C95.8811 54.6892 95.5867 54.643 95.2923 54.6586C95.0109 54.6515 94.731 54.7025 94.4702 54.8084C94.2094 54.9144 93.9733 55.073 93.7766 55.2744H93.7753Z" fill="#3C3C3C"/>
<path d="M106.713 60.5591C106.317 60.3535 105.978 60.0516 105.729 59.6812V60.7083H103.966V51.4055H105.754V55.1264C105.993 54.759 106.324 54.4609 106.714 54.2623C107.11 54.0516 107.552 53.9418 108.001 53.9425C108.403 53.9304 108.803 54.0106 109.169 54.1772C109.536 54.3437 109.859 54.5921 110.114 54.9031C110.64 55.6355 110.923 56.5145 110.923 57.4163C110.923 58.3181 110.64 59.1972 110.114 59.9295C109.859 60.2406 109.536 60.489 109.169 60.6555C108.803 60.822 108.403 60.9023 108.001 60.8901C107.551 60.8888 107.108 60.7751 106.713 60.5591V60.5591ZM108.604 58.8033C108.902 58.4037 109.063 57.9186 109.063 57.4201C109.063 56.9216 108.902 56.4364 108.604 56.0368C108.457 55.8638 108.274 55.7261 108.067 55.6341C107.859 55.542 107.634 55.4979 107.408 55.5051C107.18 55.4982 106.954 55.5424 106.746 55.6344C106.538 55.7265 106.353 55.8639 106.205 56.0368C105.904 56.435 105.741 56.9207 105.741 57.4201C105.741 57.9195 105.904 58.4052 106.205 58.8033C106.354 58.9759 106.538 59.1132 106.746 59.205C106.954 59.2968 107.18 59.3408 107.408 59.3338C107.634 59.3408 107.859 59.2967 108.066 59.2046C108.273 59.1125 108.456 58.975 108.602 58.8021L108.604 58.8033Z" fill="#3C3C3C"/>
<path d="M113.036 59.9308C112.471 59.216 112.184 58.3212 112.227 57.4113C112.185 56.503 112.477 55.6109 113.048 54.9031C113.46 54.4284 114.019 54.1067 114.637 53.9904C115.254 53.874 115.892 53.9699 116.448 54.2623C116.834 54.4634 117.161 54.7611 117.397 55.1264V54.1231H119.184V60.7071H117.421V59.68C117.172 60.0503 116.833 60.3521 116.437 60.5578C116.043 60.7741 115.6 60.8883 115.151 60.8902C114.748 60.9027 114.348 60.8227 113.982 60.6563C113.615 60.49 113.291 60.2418 113.036 59.9308V59.9308ZM116.942 58.8021C117.244 58.4041 117.407 57.9183 117.407 57.4189C117.407 56.9194 117.244 56.4336 116.942 56.0356C116.79 55.8684 116.605 55.7348 116.399 55.6433C116.193 55.5519 115.969 55.5046 115.744 55.5046C115.518 55.5046 115.295 55.5519 115.088 55.6433C114.882 55.7348 114.697 55.8684 114.545 56.0356C114.247 56.4352 114.086 56.9204 114.086 57.4189C114.086 57.9174 114.247 58.4025 114.545 58.8021C114.697 58.9693 114.882 59.103 115.088 59.1944C115.295 59.2858 115.518 59.3331 115.744 59.3331C115.969 59.3331 116.193 59.2858 116.399 59.1944C116.605 59.103 116.79 58.9693 116.942 58.8021Z" fill="#3C3C3C"/>
<path d="M121.188 54.1269H122.951V54.9721C123.226 54.6392 123.574 54.3736 123.967 54.1956C124.361 54.0176 124.79 53.9319 125.221 53.945C125.556 53.9294 125.891 53.9849 126.203 54.1076C126.515 54.2304 126.798 54.4177 127.033 54.6574C127.5 55.1752 127.743 55.8568 127.71 56.5535V60.7096H125.922V56.916C125.932 56.7279 125.905 56.5397 125.841 56.3623C125.778 56.1849 125.68 56.0219 125.553 55.8826C125.421 55.7543 125.264 55.6546 125.091 55.5899C124.919 55.5252 124.735 55.4967 124.551 55.5064C124.341 55.498 124.132 55.5333 123.936 55.6102C123.741 55.6871 123.564 55.8038 123.416 55.9528C123.269 56.1094 123.155 56.2938 123.08 56.4951C123.005 56.6965 122.972 56.9108 122.981 57.1254V60.7133H121.193L121.188 54.1269Z" fill="#3C3C3C"/>
<path d="M132.384 58.0885L131.507 58.9589V60.7146H129.719V51.4117H131.507V56.8608L134.333 54.1306H136.483L133.705 56.9335L136.736 60.7146H134.55L132.384 58.0885Z" fill="#3C3C3C"/>
</svg>
